<svg width="17" height="17" viewBox="0 0 17 17" fill="none" xmlns="http://www.w3.org/2000/svg">
<path fill-rule="evenodd" clip-rule="evenodd" d="M0.547852 8.69547C0.547852 4.31554 4.09849 0.764893 8.47843 0.764893C12.8584 0.764893 16.409 4.31554 16.409 8.69547C16.409 13.0754 12.8584 16.6261 8.47843 16.6261C4.09849 16.6261 0.547852 13.0754 0.547852 8.69547ZM9.17819 4.03043C9.17819 3.64396 8.8649 3.33067 8.47843 3.33067C8.09197 3.33067 7.77868 3.64396 7.77868 4.03043V8.69547C7.77868 8.93674 7.90297 9.161 8.10756 9.28887L10.9066 11.0383C11.2343 11.2431 11.666 11.1435 11.8709 10.8157C12.0757 10.488 11.9761 10.0563 11.6483 9.85147L9.17819 8.30764V4.03043Z" fill="#6C5FBC"/>
</svg>
