<svg width="14" height="17" viewBox="0 0 14 17" fill="none" xmlns="http://www.w3.org/2000/svg">
<path d="M4.54255 7.01804C4.54255 5.56134 5.72344 4.38046 7.18013 4.38046C8.63683 4.38046 9.81771 5.56134 9.81771 7.01804C9.81771 8.47473 8.63683 9.65562 7.18013 9.65562C5.72344 9.65562 4.54255 8.47473 4.54255 7.01804Z" fill="#6C5FBC"/>
<path fill-rule="evenodd" clip-rule="evenodd" d="M0.503842 6.10697C0.782727 2.72361 3.61005 0.119751 7.00488 0.119751H7.35543C10.7503 0.119751 13.5776 2.72361 13.8565 6.10697C14.0066 7.9286 13.4439 9.73741 12.2869 11.1524L8.39704 15.9096C7.7681 16.6788 6.5922 16.6788 5.96326 15.9096L2.07339 11.1524C0.916379 9.73741 0.353688 7.9286 0.503842 6.10697ZM7.18013 3.16311C5.05112 3.16311 3.32521 4.88902 3.32521 7.01804C3.32521 9.14705 5.05112 10.873 7.18013 10.873C9.30915 10.873 11.0351 9.14705 11.0351 7.01804C11.0351 4.88902 9.30915 3.16311 7.18013 3.16311Z" fill="#6C5FBC"/>
</svg>
